<svg xmlns="http://www.w3.org/2000/svg" width="640" height="396.011"><defs><style>@font-face{font-family:&apos;BBC Reith Sans&apos;}</style><style>.l{font-size:18px;font-family:BBCReithSans-Regular,BBC Reith Sans,ReithSans,Helmet,Freesans,Helvetica,Arial,Helmet,Freesans,Helvetica,Arial,sans-serif}</style></defs><g opacity=".5" fill="none" stroke="#222" stroke-miterlimit="10"><path d="M.781 355.411h638.905M.781 309.741h638.905M.781 264.071h638.905M.781 218.401h638.905M.781 172.731h638.905M.781 127.061h638.905" stroke-width=".628"/><path stroke-width=".592" d="M72.799 81.391h566.887"/></g><path opacity=".9" fill="#1380a1" d="M538.806 133.72l-33.627-3.608-33.626 34.362-33.627 21.584-33.627 55.206-33.626 3.726v.369l33.626-.686 33.627-30.523 33.627-30.105 33.626-23.193 33.627 4.512 33.626 25.717 33.627 24.734-33.627-43.44-33.626-38.655z"/><path fill="#1380a1" d="M606.059 215.815l33.627-4.08v-5.811l-33.627 9.891z"/><path fill="#c9c9c9" d="M639.686 355.923H.781V232.537l33.626-23.94 33.627 11.924 33.626 11.896 33.627 2.755 33.626 5.483 33.627 1.134 33.627 1.041 33.626-.323 33.627-.82 33.626-.765 33.627 5.017 33.626 3.859 33.627-1.36 33.627-1.917 33.626.616 33.627.046 33.626 4.502 33.627 12.247 33.627-14.161v106.152z" opacity=".9"/><path fill="#900" opacity=".9" d="M370.673 245.939l33.626 3.859 33.627-1.36 33.627-1.917 33.626.616 33.627.046 33.626 4.502 33.627 12.247 33.627-14.161v-38.036l-33.627 4.08-33.627-24.734-33.626-25.717-33.627-4.512-33.626 23.193-33.627 30.105-33.627 30.523-33.626.686v.58"/><path stroke-width="1.273" stroke-miterlimit="10" stroke="#222" fill="none" d="M.781 355.411h638.905"/><path stroke="#000" stroke-width="2.546" stroke-dasharray="7.638" stroke-miterlimit="10" fill="none" d="M.781 232.614l33.626-21.071 33.627 7.266 33.626 4.76 33.627 5.499 33.626 3.193 33.627 2.609 33.627 1.089 33.626 3.872 33.627-3.615 33.626 3.323 33.627 6.853 33.626 3.825 33.627-1.348 33.627-1.9 33.626.61 33.627.046 33.626 4.462 33.627 4.155 33.627-6.053"/><path stroke-width="1.15" stroke="#222" fill="none" d="M352.322 355.922V49.119"/><path d="M347.668 44.082h9.309l-4.655 8.462z"/><path d="M352.322 51.507l3.809-6.925h-7.617l3.808 6.925m0 2.075l-5.5-10h11z"/><text class="l" transform="translate(7.403 87.283)">30,000</text><text class="l" transform="translate(.781 382.454)">4 JAN</text><text class="l" transform="translate(574.664 382.407)">15 MAY</text><text class="l" transform="translate(293.144 30.736)">Outbreak begins</text><text class="l" transform="translate(7.403 202.521)">Expected deaths</text><text class="l" transform="translate(17.088 338.788)">All other deaths</text></svg>